<?xml version="1.0" standalone="no"?>
<!DOCTYPE svg PUBLIC "-//W3C//DTD SVG 20010904//EN"
 "http://www.w3.org/TR/2001/REC-SVG-20010904/DTD/svg10.dtd">
<svg version="1.0" xmlns="http://www.w3.org/2000/svg"
 width="200.000000pt" height="200.000000pt" viewBox="0 0 200.000000 200.000000"
 preserveAspectRatio="xMidYMid meet">

<g transform="translate(0.000000,200.000000) scale(0.100000,-0.100000)"
fill="#000000" stroke="none">
<path d="M670 1875 c0 -2 5 -16 12 -30 l11 -25 307 0 307 0 11 25 c7 14 12 28
12 30 0 3 -148 5 -330 5 -181 0 -330 -2 -330 -5z"/>
<path d="M502 1747 c-99 -99 -102 -104 -84 -120 10 -9 23 -17 28 -17 16 0 184
176 184 192 0 21 -10 48 -19 48 -3 0 -53 -46 -109 -103z"/>
<path d="M1376 1834 c-3 -9 -6 -23 -6 -32 0 -18 170 -192 187 -192 6 0 17 8
26 18 15 17 10 24 -86 120 -56 56 -105 102 -109 102 -3 0 -9 -7 -12 -16z"/>
<path d="M720 1755 c0 -2 5 -16 12 -30 11 -25 13 -25 125 -25 l113 0 0 30 0
30 -125 0 c-69 0 -125 -2 -125 -5z"/>
<path d="M1030 1730 l0 -30 113 0 c112 0 114 0 125 25 7 14 12 28 12 30 0 3
-56 5 -125 5 l-125 0 0 -30z"/>
<path d="M570 1645 l-85 -85 21 -20 20 -21 77 76 c42 41 77 82 77 89 0 20 -11
46 -19 46 -3 0 -44 -38 -91 -85z"/>
<path d="M1326 1708 c-3 -13 -6 -27 -6 -31 0 -5 35 -42 77 -83 l77 -74 20 20
21 20 -85 85 c-47 47 -88 85 -91 85 -4 0 -9 -10 -13 -22z"/>
<path d="M770 1635 c0 -2 5 -16 12 -30 l11 -25 207 0 207 0 11 25 c7 14 12 28
12 30 0 3 -103 5 -230 5 -126 0 -230 -2 -230 -5z"/>
<path d="M545 1450 c-128 -129 -157 -162 -145 -170 8 -5 22 -10 31 -10 18 0
299 277 299 296 0 18 -11 44 -19 44 -3 0 -78 -72 -166 -160z"/>
<path d="M1276 1594 c-11 -29 -6 -39 37 -84 71 -74 74 -76 98 -54 20 18 19 18
-48 86 -37 37 -70 68 -74 68 -4 0 -10 -7 -13 -16z"/>
<path d="M250 1494 c-85 -84 -102 -106 -90 -114 33 -21 57 -8 148 83 l92 93
-23 22 -23 22 -104 -106z"/>
<path d="M1623 1578 l-23 -22 93 -93 c90 -91 113 -105 147 -83 12 8 -5 30 -90
115 l-105 105 -22 -22z"/>
<path d="M876 1504 c-182 -44 -337 -201 -381 -385 -86 -365 235 -698 606 -629
147 27 294 141 363 282 194 392 -161 835 -588 732z m248 -38 c160 -94 167
-319 13 -423 -28 -19 -66 -34 -92 -37 -25 -3 -65 -9 -90 -12 -26 -3 -64 -18
-92 -37 -150 -101 -148 -320 5 -418 l47 -31 -35 7 c-167 33 -332 204 -369 383
-54 260 112 522 372 588 82 21 186 12 241 -20z m-82 -673 c22 -20 23 -61 1
-85 -34 -38 -103 -11 -103 40 0 54 62 81 102 45z"/>
<path d="M957 1292 c-22 -24 -21 -65 1 -85 40 -36 102 -9 102 45 0 51 -69 78
-103 40z"/>
<path d="M350 1425 c-69 -69 -82 -87 -70 -95 31 -20 53 -8 126 66 71 73 74 77
58 95 -9 11 -20 19 -23 19 -4 0 -45 -38 -91 -85z"/>
<path d="M1536 1491 c-16 -18 -14 -22 59 -95 74 -74 95 -85 125 -66 12 8 -1
26 -70 95 -46 47 -87 85 -91 85 -3 0 -14 -8 -23 -19z"/>
<path d="M1456 1411 c-22 -24 -20 -27 54 -97 46 -44 64 -51 90 -34 12 8 2 23
-56 80 -70 70 -70 71 -88 51z"/>
<path d="M120 1180 l0 -150 30 0 30 0 0 138 0 139 -25 11 c-14 7 -28 12 -30
12 -3 0 -5 -67 -5 -150z"/>
<path d="M1843 1318 l-23 -11 0 -307 0 -307 25 -11 c14 -7 28 -12 30 -12 3 0
5 149 5 330 0 182 -3 330 -7 329 -5 0 -18 -5 -30 -11z"/>
<path d="M240 1155 l0 -125 30 0 30 0 0 113 c0 112 0 114 -25 125 -14 7 -28
12 -30 12 -3 0 -5 -56 -5 -125z"/>
<path d="M1723 1268 c-22 -11 -23 -17 -23 -125 l0 -113 30 0 30 0 0 125 c0 69
-3 125 -7 124 -5 0 -18 -5 -30 -11z"/>
<path d="M360 1000 c0 -126 2 -230 5 -230 2 0 16 5 30 12 l25 11 0 207 0 207
-25 11 c-14 7 -28 12 -30 12 -3 0 -5 -103 -5 -230z"/>
<path d="M1603 1218 c-21 -10 -23 -18 -23 -100 l0 -88 30 0 30 0 0 100 c0 55
-3 100 -7 99 -5 0 -18 -5 -30 -11z"/>
<path d="M120 820 c0 -82 2 -150 5 -150 2 0 16 5 30 12 l25 11 0 139 0 138
-30 0 -30 0 0 -150z"/>
<path d="M240 845 c0 -69 2 -125 5 -125 2 0 16 5 30 12 25 11 25 13 25 125 l0
113 -30 0 -30 0 0 -125z"/>
<path d="M1580 882 c0 -85 1 -89 25 -100 14 -7 28 -12 30 -12 3 0 5 45 5 100
l0 100 -30 0 -30 0 0 -88z"/>
<path d="M1700 857 c0 -112 0 -114 25 -125 14 -7 28 -12 30 -12 3 0 5 56 5
125 l0 125 -30 0 -30 0 0 -113z"/>
<path d="M400 720 c-12 -8 -2 -23 54 -79 66 -66 71 -70 88 -54 10 9 18 19 18
23 0 14 -115 120 -130 120 -8 0 -22 -5 -30 -10z"/>
<path d="M1412 589 c-78 -78 -142 -149 -142 -158 0 -9 5 -23 10 -31 8 -12 42
17 172 148 131 130 160 164 148 172 -8 5 -22 10 -30 10 -9 0 -80 -63 -158
-141z"/>
<path d="M280 670 c-12 -8 2 -26 72 -97 l88 -88 21 22 22 21 -77 76 c-74 74
-96 86 -126 66z"/>
<path d="M1495 505 c-143 -146 -170 -177 -168 -200 1 -15 5 -30 8 -33 3 -4 94
83 203 191 157 158 194 199 182 207 -34 22 -59 4 -225 -165z"/>
<path d="M160 620 c-12 -8 32 -57 218 -242 237 -238 252 -248 252 -183 0 27
-409 435 -436 435 -10 0 -26 -5 -34 -10z"/>
<path d="M1578 422 c-204 -204 -221 -226 -198 -262 8 -12 57 32 242 218 186
185 230 234 218 242 -36 23 -58 7 -262 -198z"/>
<path d="M587 542 c-16 -17 -12 -22 54 -88 56 -56 71 -66 79 -54 5 8 10 22 10
31 0 15 -105 129 -120 129 -4 0 -14 -8 -23 -18z"/>
<path d="M505 460 c-19 -21 -18 -22 68 -108 47 -47 88 -84 91 -82 2 3 7 17 11
32 6 23 -2 35 -71 102 -42 42 -78 76 -79 76 -1 0 -10 -9 -20 -20z"/>
<path d="M782 395 c-7 -14 -12 -28 -12 -30 0 -3 45 -5 100 -5 l100 0 0 30 0
30 -88 0 c-85 0 -89 -1 -100 -25z"/>
<path d="M1030 390 l0 -30 100 0 c55 0 100 2 100 5 0 2 -5 16 -12 30 -11 24
-15 25 -100 25 l-88 0 0 -30z"/>
<path d="M732 275 c-7 -14 -12 -28 -12 -30 0 -3 126 -5 280 -5 154 0 280 2
280 5 0 2 -5 16 -12 30 l-11 25 -257 0 -257 0 -11 -25z"/>
<path d="M682 155 c-7 -14 -12 -28 -12 -30 0 -3 68 -5 150 -5 l150 0 0 30 0
30 -138 0 -139 0 -11 -25z"/>
<path d="M1030 150 l0 -30 150 0 c83 0 150 2 150 5 0 2 -5 16 -12 30 l-11 25
-139 0 -138 0 0 -30z"/>
</g>
</svg>
